<?xml version="1.0" encoding="utf-8"?>
<!-- Generator: Adobe Illustrator 22.0.1, SVG Export Plug-In . SVG Version: 6.00 Build 0)  -->
<svg version="1.1" id="Livello_1" xmlns="http://www.w3.org/2000/svg" xmlns:xlink="http://www.w3.org/1999/xlink" x="0px" y="0px"
	 viewBox="0 0 62.2 23.4" style="enable-background:new 0 0 62.2 23.4;" xml:space="preserve" width="103" height="40">
<style type="text/css">
	.st0{display:none;}
	.st1{display:none;fill:#111111;}
	.st2{fill:#4988CA;}
	.st3{enable-background:new    ;}
	.st4{fill:#FFFFFF;}
</style>
<g id="Livello_2_1_" class="st0">

		<image style="display:inline;overflow:visible;enable-background:new    ;" width="1200" height="630" xlink:href="1Projects/dev.tube/web/src/static/open_graph.jpg"  transform="matrix(0.1165 0 0 0.1165 -39.4487 -16.5124)">
	</image>
</g>
<g id="Livello_1_1_">
	<path class="st1" d="M26.2,19.2h-2.1V18c-0.8,0.9-1.5,1.4-2.2,1.4s-1.1-0.3-1.3-0.9c-0.1-0.4-0.2-0.9-0.2-1.7v-9h2.1v9.3
		c0,0.3,0.2,0.4,0.5,0.4c0.4,0,0.8-0.4,1.2-1V7.8h2.1L26.2,19.2 M18.7,11.5c0-1.2-0.2-2.1-0.7-2.7c-0.6-0.8-1.5-1.1-2.4-1.1
		c-1,0-1.8,0.3-2.4,1.1c-0.4,0.6-0.7,1.5-0.7,2.7v4.1c0,1.2,0.2,2,0.6,2.6c0.6,0.8,1.5,1.2,2.4,1.2s1.8-0.4,2.4-1.2
		c0.4-0.6,0.6-1.4,0.6-2.6L18.7,11.5L18.7,11.5z M16.6,15.8c0.1,1.1-0.2,1.7-0.9,1.7c-0.7,0-1-0.6-0.9-1.7v-4.5
		c-0.1-1.1,0.2-1.7,0.9-1.7c0.6,0,1,0.5,0.9,1.7V15.8z M10.3,13v6.2H8.1V13c0,0-2.3-7.6-2.8-9.1h2.3l1.6,6l1.6-6h2.3L10.3,13"/>
	<path class="st2" d="M48.6,9.5c-0.3,0-0.7,0.2-1.1,0.5v7c0.3,0.3,0.7,0.5,1.1,0.5c0.6,0,0.9-0.4,0.9-1.6v-5
		C49.5,9.9,49.2,9.5,48.6,9.5 M57.1,10.9c0-1.1-0.3-1.4-1-1.4c-0.7,0-1,0.3-1,1.4v1.3H57L57.1,10.9"/>
	<path class="st2" d="M61.8,5.1c0,0-0.3-2.3-1.4-3.3c-1.3-1.4-2.8-1.4-3.4-1.4c-4.8-0.3-12-0.3-12-0.3l0,0c0,0-7.2,0-12,0.3
		c-0.7,0.1-2.1,0.1-3.4,1.4c-1,1-1.4,3.3-1.4,3.3s-0.3,2.7-0.3,5.4V13c0,2.7,0.3,5.4,0.3,5.4s0.3,2.3,1.4,3.3c1.3,1.3,3,1.3,3.8,1.4
		c2.7,0.3,11.6,0.3,11.6,0.3s7.2,0,12-0.3c0.7-0.1,2.1-0.1,3.4-1.4c1-1,1.4-3.3,1.4-3.3s0.3-2.7,0.3-5.4v-2.6
		C62.2,7.9,61.8,5.1,61.8,5.1z M35.5,19.2h-2.3v-13h-2.4V4H38v2.2h-2.5V19.2L35.5,19.2z M43.7,19.2h-2.2V18
		c-0.8,0.9-1.5,1.4-2.3,1.4c-0.7,0-1.1-0.3-1.4-0.9c-0.1-0.4-0.2-0.9-0.2-1.7V7.9h2.2v9.2c0.1,0.3,0.2,0.4,0.5,0.4
		c0.4,0,0.8-0.4,1.3-1V7.9h2.2L43.7,19.2L43.7,19.2z M51.6,15.8c0,1-0.1,1.8-0.2,2.3c-0.3,0.8-0.9,1.3-1.7,1.3
		c-0.7,0-1.5-0.4-2.2-1.3v1.1h-2.1V4h2.1v4.9c0.7-0.8,1.4-1.3,2.2-1.3s1.4,0.5,1.6,1.3c0.2,0.5,0.3,1.2,0.3,2.3
		C51.6,11.3,51.6,15.8,51.6,15.8z M56.2,17.4c0.5,0,0.8-0.3,0.9-0.8c0-0.1,0-0.6,0-1.4h2.2v0.3c0,0.7-0.1,1.1-0.1,1.3
		c-0.1,0.5-0.2,0.9-0.5,1.2c-0.6,0.8-1.4,1.2-2.5,1.2s-1.9-0.4-2.5-1.2c-0.4-0.6-0.7-1.4-0.7-2.6v-4c0-1.2,0.3-2.1,0.7-2.7
		c0.6-0.8,1.4-1.2,2.5-1.2s1.9,0.4,2.5,1.2c0.4,0.6,0.7,1.5,0.7,2.7v2.3h-4.1v2C55.2,16.9,55.5,17.4,56.2,17.4L56.2,17.4z"/>
	<g class="st3">
		<path class="st4" d="M0.1,19.2V4h4c1.4,0,2.5,0.6,3.4,1.8C8.4,7,8.9,8.5,8.9,10.4v2.6c0,1.9-0.4,3.4-1.3,4.5s-2,1.8-3.4,1.8H0.1z
			 M2.7,6.4v10.4H4c0.7,0,1.3-0.4,1.7-1.1c0.4-0.7,0.6-1.7,0.6-2.9v-2.6c0-1.2-0.2-2.1-0.6-2.8C5.3,6.8,4.7,6.4,4,6.4H2.7z"/>
		<path class="st4" d="M14.3,19.5c-1.2,0-2.2-0.5-3-1.4c-0.7-0.9-1.1-2.1-1.1-3.5v-1.6c0-1.5,0.3-2.8,1-3.7c0.7-1,1.6-1.5,2.8-1.5
			c1.2,0,2.1,0.4,2.7,1.3s1,2.1,1,3.6v1.8h-4.9v0c0,0.7,0.1,1.4,0.4,1.8c0.3,0.5,0.7,0.7,1.3,0.7c0.5,0,0.9-0.1,1.2-0.2
			s0.7-0.3,1.1-0.6l0.7,1.9c-0.3,0.4-0.8,0.7-1.4,0.9S15,19.5,14.3,19.5z M14.1,10.1c-0.4,0-0.7,0.2-0.9,0.6c-0.2,0.4-0.3,1-0.3,1.7
			h2.3v-0.4c0-0.6-0.1-1.1-0.3-1.5C14.8,10.3,14.5,10.1,14.1,10.1z"/>
		<path class="st4" d="M22.2,15l0.1,0.9h0.1l0.1-0.9l1.1-7h2.7l-2.8,11.3H21L18.3,7.9H21L22.2,15z"/>
	</g>
</g>
</svg>
