<svg xmlns="http://www.w3.org/2000/svg" width="130" height="19" viewBox="0 0 130 19">
  <g fill="none" fill-rule="evenodd">
    <g fill-rule="nonzero">
      <path fill="#5468FF" d="M59.399,0.0444823668 L72.698,0.0444823668 C74.007,0.0444823668 75.075,1.10148237 75.075,2.40848237 L75.075,15.6424824 C75.075,16.9444824 74.012,18.0064824 72.698,18.0064824 L59.399,18.0064824 C58.09,18.0064824 57.022,16.9494824 57.022,15.6424824 L57.022,2.40348237 C57.022,1.10148237 58.085,0.0444823668 59.399,0.0444823668 Z"/>
      <path fill="#FFFFFF" d="M66.257,4.58248237 C63.442,4.58248237 61.157,6.85448237 61.157,9.66048237 C61.157,12.4664824 63.441,14.7324824 66.257,14.7324824 C69.072,14.7324824 71.357,12.4604824 71.357,9.65448237 C71.357,6.84848237 69.078,4.58248237 66.257,4.58248237 Z M66.257,13.2344824 C64.274,13.2344824 62.664,11.6324824 62.664,9.66048237 C62.664,7.68848237 64.274,6.08648237 66.257,6.08648237 C68.24,6.08648237 69.85,7.68848237 69.85,9.66048237 C69.85,11.6324824 68.245,13.2344824 66.257,13.2344824 Z M66.257,6.81648237 L66.257,9.48048237 C66.257,9.55648237 66.339,9.61148237 66.41,9.57348237 L68.787,8.34748237 C68.842,8.32048237 68.858,8.25448237 68.831,8.20048237 C68.338,7.33948237 67.423,6.75148237 66.366,6.71348237 C66.311,6.71348237 66.256,6.75748237 66.256,6.81748237 L66.257,6.81648237 Z M62.927,4.86048237 L62.615,4.54948237 C62.308,4.24448237 61.815,4.24448237 61.509,4.54948237 L61.137,4.91948237 C60.83,5.22448237 60.83,5.71448237 61.137,6.02048237 L61.444,6.32548237 C61.493,6.37448237 61.565,6.36348237 61.608,6.31448237 C61.789,6.06948237 61.986,5.83548237 62.205,5.61748237 C62.43,5.39448237 62.66,5.19748237 62.912,5.01848237 C62.967,4.98548237 62.972,4.90948237 62.928,4.86048237 L62.927,4.86048237 Z M67.928,4.05448237 L67.928,3.43848237 C67.928,3.00848237 67.577,2.65948237 67.145,2.65948237 L65.321,2.65948237 C64.888,2.65948237 64.538,3.00848237 64.538,3.43848237 L64.538,4.07048237 C64.538,4.14148237 64.604,4.19048237 64.675,4.17448237 C65.184,4.02748237 65.721,3.95148237 66.263,3.95148237 C66.783,3.95148237 67.298,4.02248237 67.797,4.15848237 C67.863,4.17448237 67.928,4.12548237 67.928,4.05448237 Z"/>
      <path fill="#252C61" d="M5.027,10.2464824 C5.027,10.9444824 4.775,11.4924824 4.27,11.8904824 C3.765,12.2874824 3.069,12.4864824 2.181,12.4864824 C1.293,12.4864824 0.566,12.3484824 0,12.0724824 L0,10.8584824 C0.358,11.0264824 0.739,11.1594824 1.141,11.2554824 C1.544,11.3524824 1.919,11.4004824 2.266,11.4004824 C2.774,11.4004824 3.15,11.3034824 3.391,11.1104824 C3.633,10.9174824 3.754,10.6574824 3.754,10.3314824 C3.754,10.0374824 3.643,9.78948237 3.421,9.58448237 C3.199,9.38048237 2.741,9.13848237 2.046,8.85948237 C1.33,8.56948237 0.825,8.23848237 0.531,7.86548237 C0.237,7.49348237 0.091,7.04548237 0.091,6.52248237 C0.091,5.86748237 0.324,5.35148237 0.789,4.97548237 C1.254,4.59948237 1.879,4.41148237 2.664,4.41148237 C3.416,4.41148237 4.164,4.57648237 4.909,4.90548237 L4.501,5.95248237 C3.803,5.65848237 3.18,5.51248237 2.632,5.51248237 C2.217,5.51248237 1.902,5.60248237 1.687,5.78348237 C1.472,5.96448237 1.365,6.20348237 1.365,6.50048237 C1.365,6.70448237 1.408,6.87948237 1.494,7.02448237 C1.58,7.16948237 1.721,7.30648237 1.918,7.43548237 C2.115,7.56448237 2.469,7.73448237 2.981,7.94548237 C3.558,8.18548237 3.98,8.40948237 4.249,8.61648237 C4.518,8.82448237 4.714,9.05848237 4.84,9.32048237 C4.965,9.58148237 5.028,9.88948237 5.028,10.2444824 L5.027,10.2464824 Z M9.007,12.4864824 C8.083,12.4864824 7.361,12.2174824 6.84,11.6784824 C6.319,11.1394824 6.059,10.3974824 6.059,9.45248237 C6.059,8.48248237 6.301,7.71948237 6.784,7.16448237 C7.267,6.60948237 7.932,6.33148237 8.777,6.33148237 C9.561,6.33148237 10.181,6.56948237 10.635,7.04548237 C11.09,7.52148237 11.317,8.17748237 11.317,9.01148237 L11.317,9.69348237 L7.359,9.69348237 C7.377,10.2704824 7.533,10.7134824 7.826,11.0224824 C8.12,11.3324824 8.533,11.4874824 9.067,11.4874824 C9.418,11.4874824 9.745,11.4544824 10.047,11.3884824 C10.35,11.3224824 10.675,11.2124824 11.022,11.0584824 L11.022,12.0844824 C10.714,12.2314824 10.403,12.3354824 10.087,12.3964824 C9.772,12.4574824 9.412,12.4874824 9.007,12.4874824 L9.007,12.4864824 Z M16.467,12.3794824 L16.215,11.5524824 L16.172,11.5524824 C15.886,11.9144824 15.597,12.1604824 15.307,12.2914824 C15.017,12.4224824 14.645,12.4874824 14.19,12.4874824 C13.606,12.4874824 13.151,12.3294824 12.823,12.0144824 C12.495,11.6994824 12.332,11.2534824 12.332,10.6774824 C12.332,10.0654824 12.559,9.60348237 13.014,9.29148237 C13.469,8.97948237 14.162,8.80948237 15.093,8.78148237 L16.119,8.74948237 L16.119,8.43248237 C16.119,8.05248237 16.03,7.76948237 15.853,7.58148237 C15.676,7.39348237 15.401,7.29948237 15.029,7.29948237 C14.725,7.29948237 14.433,7.34448237 14.154,7.43348237 C13.875,7.52348237 13.606,7.62848237 13.348,7.75048237 L12.94,6.84848237 C13.262,6.68048237 13.615,6.55248237 13.998,6.46448237 C14.381,6.37648237 14.743,6.33248237 15.083,6.33248237 C15.839,6.33248237 16.409,6.49748237 16.794,6.82648237 C17.179,7.15548237 17.371,7.67348237 17.371,8.37848237 L17.371,12.3794824 L16.469,12.3794824 L16.467,12.3794824 Z M22.144,6.33148237 C22.398,6.33148237 22.608,6.34948237 22.772,6.38548237 L22.648,7.56148237 C22.469,7.51848237 22.283,7.49748237 22.089,7.49748237 C21.584,7.49748237 21.175,7.66248237 20.862,7.99148237 C20.549,8.32048237 20.392,8.74848237 20.392,9.27548237 L20.392,12.3794824 L19.13,12.3794824 L19.13,6.43948237 L20.118,6.43948237 L20.285,7.48648237 L20.349,7.48648237 C20.546,7.13248237 20.803,6.85048237 21.12,6.64348237 C21.437,6.43548237 21.778,6.33148237 22.143,6.33148237 L22.144,6.33148237 Z M26.269,12.4864824 C25.37,12.4864824 24.687,12.2244824 24.22,11.6994824 C23.753,11.1744824 23.519,10.4224824 23.519,9.44048237 C23.519,8.44148237 23.763,7.67348237 24.252,7.13648237 C24.741,6.59948237 25.447,6.33048237 26.371,6.33048237 C26.998,6.33048237 27.562,6.44648237 28.063,6.67948237 L27.682,7.69448237 C27.148,7.48648237 26.708,7.38248237 26.361,7.38248237 C25.333,7.38248237 24.819,8.06448237 24.819,9.42848237 C24.819,10.0944824 24.947,10.5944824 25.203,10.9294824 C25.459,11.2644824 25.834,11.4314824 26.328,11.4314824 C26.89,11.4314824 27.422,11.2914824 27.923,11.0124824 L27.923,12.1134824 C27.697,12.2454824 27.457,12.3404824 27.201,12.3984824 C26.945,12.4554824 26.634,12.4844824 26.269,12.4844824 L26.269,12.4864824 Z M34.546,12.3794824 L33.278,12.3794824 L33.278,8.72748237 C33.278,8.26948237 33.186,7.92748237 33.001,7.70148237 C32.817,7.47548237 32.524,7.36348237 32.123,7.36348237 C31.593,7.36348237 31.204,7.52148237 30.955,7.83848237 C30.706,8.15548237 30.582,8.68648237 30.582,9.43148237 L30.582,12.3804824 L29.32,12.3804824 L29.32,4.02348237 L30.582,4.02348237 L30.582,6.14548237 C30.582,6.48548237 30.561,6.84948237 30.518,7.23548237 L30.599,7.23548237 C30.771,6.94948237 31.01,6.72748237 31.316,6.56948237 C31.622,6.41148237 31.979,6.33348237 32.388,6.33348237 C33.827,6.33348237 34.547,7.05848237 34.547,8.50848237 L34.547,12.3814824 L34.546,12.3794824 Z M42.194,6.33148237 C42.935,6.33148237 43.513,6.60048237 43.926,7.13748237 C44.34,7.67448237 44.546,8.42848237 44.546,9.39848237 C44.546,10.3724824 44.337,11.1304824 43.918,11.6734824 C43.499,12.2154824 42.917,12.4874824 42.172,12.4874824 C41.42,12.4874824 40.836,12.2174824 40.421,11.6764824 L40.335,11.6764824 L40.104,12.3804824 L39.159,12.3804824 L39.159,4.02348237 L40.421,4.02348237 L40.421,6.01048237 L40.4,6.66548237 L40.368,7.21848237 L40.422,7.21848237 C40.823,6.62748237 41.414,6.33248237 42.194,6.33248237 L42.194,6.33148237 Z M45.111,6.43848237 L46.486,6.43848237 L47.694,9.80648237 C47.877,10.2864824 47.998,10.7374824 48.059,11.1604824 L48.102,11.1604824 C48.134,10.9634824 48.193,10.7244824 48.279,10.4434824 C48.365,10.1624824 48.82,8.82748237 49.643,6.43948237 L51.007,6.43948237 L48.466,13.1694824 C48.004,14.4044824 47.234,15.0224824 46.156,15.0224824 C45.877,15.0224824 45.605,14.9924824 45.34,14.9314824 L45.34,13.9324824 C45.53,13.9754824 45.746,13.9964824 45.99,13.9964824 C46.599,13.9964824 47.027,13.6434824 47.274,12.9384824 L47.494,12.3794824 L45.109,6.43948237 L45.111,6.43848237 Z M41.867,7.36248237 C41.359,7.36248237 40.992,7.51148237 40.769,7.81048237 C40.545,8.10948237 40.43,8.60948237 40.423,9.31148237 L40.423,9.39748237 C40.423,10.1204824 40.538,10.6444824 40.767,10.9684824 C40.996,11.2924824 41.37,11.4544824 41.89,11.4544824 C42.338,11.4544824 42.677,11.2774824 42.908,10.9224824 C43.139,10.5684824 43.254,10.0554824 43.254,9.38648237 C43.254,8.03648237 42.792,7.36148237 41.868,7.36148237 L41.867,7.36248237 Z M14.587,11.5194824 C15.045,11.5194824 15.413,11.3914824 15.691,11.1354824 C15.969,10.8794824 16.107,10.5204824 16.107,10.0584824 L16.107,9.54248237 L15.344,9.57448237 C14.75,9.59548237 14.317,9.69548237 14.047,9.87248237 C13.777,10.0494824 13.641,10.3204824 13.641,10.6864824 C13.641,10.9514824 13.72,11.1564824 13.877,11.3014824 C14.035,11.4464824 14.271,11.5194824 14.586,11.5194824 L14.587,11.5194824 Z M8.775,7.28748237 C8.374,7.28748237 8.053,7.41448237 7.811,7.66848237 C7.569,7.92248237 7.425,8.29348237 7.379,8.78048237 L10.075,8.78048237 C10.068,8.28948237 9.95,7.91848237 9.721,7.66548237 C9.492,7.41348237 9.177,7.28648237 8.776,7.28648237 L8.775,7.28748237 Z"/>
    </g>
    <path fill="#5468FF" d="M102.162 13.7844824C102.162 15.2394824 101.79 16.3014824 101.039 16.9774824 100.289 17.6534824 99.144 17.9904824 97.599 17.9904824 97.035 17.9904824 95.863 17.8814824 94.926 17.6744824L95.271 15.9854824C96.054 16.1484824 97.09 16.1924824 97.632 16.1924824 98.492 16.1924824 99.105 16.0184824 99.472 15.6694824 99.839 15.3204824 100.02 14.8034824 100.02 14.1164824L100.02 13.7674824C99.806 13.8714824 99.527 13.9744824 99.182 14.0834824 98.837 14.1874824 98.437 14.2414824 97.988 14.2414824 97.396 14.2414824 96.86 14.1484824 96.372 13.9634824 95.885 13.7784824 95.463 13.5054824 95.118 13.1464824 94.773 12.7864824 94.499 12.3344824 94.307 11.7954824 94.115 11.2564824 94.017 10.2914824 94.017 9.58348237 94.017 8.91848237 94.121 8.08548237 94.324 7.52948237 94.532 6.97348237 94.828 6.49448237 95.228 6.09648237 95.622 5.69848237 96.104 5.39348237 96.669 5.17048237 97.233 4.94748237 97.896 4.80548237 98.614 4.80548237 99.31 4.80548237 99.951 4.89248237 100.575 4.99648237 101.199 5.10048237 101.731 5.20848237 102.163 5.32848237L102.163 13.7844824 102.162 13.7844824zM96.207 9.57848237C96.207 10.4714824 96.404 11.4634824 96.799 11.8774824 97.193 12.2914824 97.703 12.4984824 98.327 12.4984824 98.667 12.4984824 98.99 12.4494824 99.291 12.3564824 99.592 12.2634824 99.833 12.1544824 100.025 12.0244824L100.025 6.73448237C99.872 6.70148237 99.231 6.57148237 98.612 6.55448237 97.834 6.53248237 97.243 6.84848237 96.826 7.35548237 96.415 7.86248237 96.207 8.75048237 96.207 9.57848237zM112.328 9.57848237C112.328 10.2974824 112.224 10.8424824 112.01 11.4364824 111.796 12.0304824 111.495 12.5374824 111.106 12.9564824 110.717 13.3764824 110.252 13.7024824 109.704 13.9314824 109.156 14.1604824 108.313 14.2914824 107.891 14.2914824 107.469 14.2864824 106.631 14.1664824 106.089 13.9314824 105.547 13.6974824 105.081 13.3754824 104.692 12.9564824 104.303 12.5364824 104.002 12.0304824 103.783 11.4364824 103.564 10.8424824 103.454 10.2974824 103.454 9.57848237 103.454 8.85948237 103.553 8.16748237 103.772 7.57948237 103.991 6.99148237 104.298 6.48948237 104.692 6.07048237 105.086 5.65048237 105.557 5.32948237 106.094 5.10048237 106.636 4.87148237 107.233 4.76248237 107.88 4.76248237 108.526 4.76248237 109.123 4.87648237 109.671 5.10048237 110.219 5.32948237 110.69 5.65048237 111.073 6.07048237 111.462 6.49048237 111.763 6.99148237 111.982 7.57948237 112.212 8.16748237 112.327 8.85948237 112.327 9.57848237L112.328 9.57848237zM110.136 9.58348237C110.136 8.66248237 109.933 7.89448237 109.539 7.36048237 109.145 6.82148237 108.591 6.55448237 107.885 6.55448237 107.178 6.55448237 106.625 6.82148237 106.231 7.36048237 105.837 7.89948237 105.645 8.66248237 105.645 9.58348237 105.645 10.5154824 105.842 11.1414824 106.237 11.6814824 106.631 12.2264824 107.185 12.4934824 107.891 12.4934824 108.598 12.4934824 109.151 12.2214824 109.545 11.6814824 109.939 11.1364824 110.137 10.5154824 110.137 9.58348237L110.136 9.58348237zM117.099 14.2914824C113.588 14.3074824 113.588 11.4694824 113.588 11.0174824L113.583.949482367 115.725.611482367 115.725 10.6144824C115.725 10.8704824 115.725 12.4944824 117.1 12.4994824L117.1 14.2915498 117.099 14.2914824z"/>
    <polygon fill="#5468FF" points="120.873 14.291 118.72 14.291 118.72 5.095 120.873 4.757"/>
    <path fill="#5468FF" d="M119.794 3.74948237C120.512 3.74948237 121.098 3.17148237 121.098 2.45848237 121.098 1.74448237 120.517 1.16748237 119.794 1.16748237 119.071 1.16748237 118.49 1.74548237 118.49 2.45848237 118.49 3.17248237 119.076 3.74948237 119.794 3.74948237zM126.225 4.76248237C126.932 4.76248237 127.529 4.84948237 128.011 5.02448237 128.493 5.19848237 128.882 5.44448237 129.167 5.75448237 129.452 6.06548237 129.655 6.48948237 129.775 6.93648237 129.901 7.38348237 129.961 7.87348237 129.961 8.41248237L129.961 13.8934824C129.632 13.9644824 129.134 14.0464824 128.466 14.1444824 127.798 14.2424824 127.047 14.2914824 126.215 14.2914824 125.662 14.2914824 125.152 14.2374824 124.698 14.1334824 124.238 14.0294824 123.849 13.8614824 123.52 13.6264824 123.197 13.3924824 122.945 13.0924824 122.759 12.7224824 122.578 12.3524824 122.485 11.8294824 122.485 11.2844824 122.485 10.7614824 122.589 10.4294824 122.792 10.0694824 123 9.70948237 123.279 9.41548237 123.63 9.18648237 123.986 8.95748237 124.391 8.79448237 124.857 8.69648237 125.323 8.59848237 125.81 8.54948237 126.314 8.54948237 126.55 8.54948237 126.796 8.56548237 127.059 8.59348237 127.322 8.62048237 127.596 8.66948237 127.892 8.74048237L127.892 8.39148237C127.892 8.14648237 127.865 7.91248237 127.804 7.69448237 127.744 7.47148237 127.64 7.28048237 127.497 7.11148237 127.349 6.94248237 127.157 6.81148237 126.916 6.71948237 126.675 6.62648237 126.368 6.55648237 126.001 6.55648237 125.508 6.55648237 125.059 6.61648237 124.648 6.68748237 124.237 6.75848237 123.898 6.84048237 123.64 6.93248237L123.383 5.18348237C123.651 5.09048237 124.051 4.99848237 124.566 4.90548237 125.081 4.81248237 125.634 4.76348237 126.226 4.76348237L126.225 4.76248237zM126.404 12.4924824C127.061 12.4924824 127.549 12.4544824 127.888 12.3884824L127.888 10.2204824C127.767 10.1874824 127.598 10.1494824 127.373 10.1164824 127.148 10.0834824 126.902 10.0624824 126.628 10.0624824 126.392 10.0624824 126.151 10.0784824 125.91 10.1164824 125.669 10.1494824 125.45 10.2144824 125.258 10.3074824 125.066 10.4004824 124.907 10.5304824 124.792 10.6994824 124.671 10.8684824 124.617 10.9664824 124.617 11.2224824 124.617 11.7234824 124.792 12.0124824 125.11 12.2034824 125.433 12.3994824 125.86 12.4924824 126.403 12.4924824L126.404 12.4924824zM84.108 4.81648237C84.815 4.81648237 85.412 4.90348237 85.894 5.07848237 86.376 5.25248237 86.765 5.49848237 87.05 5.80848237 87.34 6.12448237 87.537 6.54348237 87.658 6.99048237 87.784 7.43748237 87.844 7.92748237 87.844 8.46648237L87.844 13.9474824C87.515 14.0184824 87.017 14.1004824 86.349 14.1984824 85.681 14.2964824 84.93 14.3454824 84.098 14.3454824 83.545 14.3454824 83.035 14.2914824 82.581 14.1874824 82.121 14.0834824 81.732 13.9154824 81.403 13.6804824 81.08 13.4464824 80.828 13.1464824 80.642 12.7764824 80.461 12.4064824 80.368 11.8834824 80.368 11.3384824 80.368 10.8154824 80.472 10.4834824 80.675 10.1234824 80.883 9.76348237 81.162 9.46948237 81.513 9.24048237 81.869 9.01148237 82.274 8.84848237 82.74 8.75048237 83.206 8.65248237 83.693 8.60348237 84.197 8.60348237 84.433 8.60348237 84.679 8.61948237 84.942 8.64748237 85.199 8.67448237 85.479 8.72348237 85.775 8.79448237L85.775 8.44548237C85.775 8.20048237 85.748 7.96648237 85.687 7.74848237 85.627 7.52548237 85.523 7.33448237 85.38 7.16548237 85.232 6.99648237 85.04 6.86548237 84.799 6.77348237 84.558 6.68048237 84.251 6.61048237 83.884 6.61048237 83.391 6.61048237 82.942 6.67048237 82.531 6.74148237 82.12 6.81248237 81.781 6.89448237 81.523 6.98648237L81.266 5.23748237C81.534 5.14448237 81.934 5.05248237 82.449 4.95948237 82.964 4.86148237 83.517 4.81748237 84.109 4.81748237L84.108 4.81648237zM84.293 12.5524824C84.95 12.5524824 85.438 12.5144824 85.777 12.4484824L85.777 10.2804824C85.656 10.2474824 85.487 10.2094824 85.262 10.1764824 85.037 10.1434824 84.791 10.1224824 84.517 10.1224824 84.281 10.1224824 84.04 10.1384824 83.799 10.1764824 83.558 10.2094824 83.339 10.2744824 83.147 10.3674824 82.955 10.4604824 82.796 10.5904824 82.681 10.7594824 82.56 10.9284824 82.506 11.0264824 82.506 11.2824824 82.506 11.7834824 82.681 12.0724824 82.999 12.2634824 83.317 12.4544824 83.749 12.5524824 84.292 12.5524824L84.293 12.5524824zM92.976 14.2904824C89.465 14.3064824 89.465 11.4684824 89.465 11.0164824L89.46.948482367 91.602.610482367 91.602 10.6134824C91.602 10.8694824 91.602 12.4934824 92.977 12.4984824L92.977 14.2905498 92.976 14.2904824z"/>
  </g>
</svg>
